<?xml version="1.0" encoding="utf-8"?>
<!-- Generator: Adobe Illustrator 21.0.0, SVG Export Plug-In . SVG Version: 6.00 Build 0)  -->
<svg version="1.1" id="Layer_1" xmlns="http://www.w3.org/2000/svg" xmlns:xlink="http://www.w3.org/1999/xlink" x="0px" y="0px"
	 viewBox="0 0 133 123" style="enable-background:new 0 0 133 123;" xml:space="preserve">
<style type="text/css">
	.st0{fill:#FF0000;}
</style>
<g>
	<path class="st0" d="M123.5,72.2l-22.5-3L90,49.9c-3-5.2-8.6-8.5-14.5-8.5H46.1c-7.1,0-13.4,4.4-15.8,11l-5.9,16.4L9.5,72
		c-1.8,0.4-2.9,1.9-2.9,3.7V97c0,2,1.6,3.7,3.7,3.7h8.8c0.6,8.6,7.8,15.3,16.6,15.3s15.9-6.8,16.6-15.3h28.7
		c0.6,8.6,7.8,15.3,16.6,15.3s15.9-6.8,16.6-15.3h8.8c2,0,3.7-1.6,3.7-3.7V75.9C126.7,74,125.3,72.5,123.5,72.2z M35.7,108.1
		c-4.8,0-8.7-3.9-8.7-8.7c0-4.8,3.9-8.7,8.7-8.7s8.7,3.9,8.7,8.7C44.4,104.2,40.6,108.1,35.7,108.1z M36.5,68.7
		c-0.5,0-0.9-0.5-0.8-1l4.3-11.6c0.9-2.5,3.3-4.2,5.9-4.2h5.2c0.4,0,0.8,0.3,0.8,0.6l1.4,15.4c0,0.4-0.3,0.8-0.8,0.8H36.5z
		 M64.1,68.1l-1.4-15.4c0-0.4,0.3-0.8,0.8-0.8h12c2.3,0,4.4,1.3,5.6,3.2l7.2,12.5c0.3,0.5-0.1,1.1-0.6,1.1H64.7
		C64.3,68.7,64.1,68.4,64.1,68.1z M97.6,108.1c-4.8,0-8.7-3.9-8.7-8.7c0-4.8,3.9-8.7,8.7-8.7c4.8,0,8.7,3.9,8.7,8.7
		C106.3,104.2,102.4,108.1,97.6,108.1z"/>
	<path class="st0" d="M41.6,32.4c5.7,0,10.4-3.5,12.3-8.6H58c0.1,0,0.4,0.1,0.5,0.1l2.4,2.1c0.3,0.3,0.5,0.3,0.8,0l3.5-3.2
		c0.3-0.3,0.5-0.3,0.8,0l3.5,3.2c0.3,0.3,0.5,0.3,0.8,0l3.5-3.2c0.3-0.3,0.5-0.3,0.8,0l3.5,3.2c0.3,0.3,0.5,0.3,0.8,0l2.4-2.1
		c0.1-0.1,0.3-0.1,0.5-0.1h2.9c0.3,0,0.5-0.1,0.6-0.3l3-3.8c0.3-0.3,0.3-0.6,0-1l-3-3.8c-0.1-0.1-0.4-0.3-0.6-0.3H53.9
		C52,9.8,47.2,6.3,41.6,6.3c-7.2,0-13.1,5.8-13.1,13.1S34.4,32.4,41.6,32.4z M36.5,16.4c1.6,0,2.9,1.4,2.9,2.9
		c0,1.6-1.4,2.9-2.9,2.9c-1.6,0-2.9-1.4-2.9-2.9C33.6,17.6,34.9,16.4,36.5,16.4z"/>
</g>
</svg>
