<?xml version="1.0" encoding="utf-8"?>
<!-- Generator: Adobe Illustrator 16.0.0, SVG Export Plug-In . SVG Version: 6.00 Build 0)  -->
<!DOCTYPE svg PUBLIC "-//W3C//DTD SVG 1.1//EN" "http://www.w3.org/Graphics/SVG/1.1/DTD/svg11.dtd">
<svg version="1.1" id="Layer_1" xmlns="http://www.w3.org/2000/svg" xmlns:xlink="http://www.w3.org/1999/xlink" x="0px" y="0px"
	 width="161.269px" height="147.494px" viewBox="0 0 161.269 147.494" enable-background="new 0 0 161.269 147.494"
	 xml:space="preserve">
<path fill="#ED2224" d="M157.179,88.701l-30.246-4.079L112.15,58.624c-4.079-6.967-11.555-11.385-19.542-11.385H53.186
	c-9.516,0-18.012,5.948-21.241,14.784l-7.986,22.09L3.908,88.361C1.529,88.871,0,90.91,0,93.289v28.717
	c0,2.719,2.209,4.928,4.928,4.928h11.894c0.85,11.555,10.536,20.561,22.26,20.561c11.725,0,21.411-9.176,22.26-20.561h38.573
	c0.851,11.555,10.535,20.561,22.261,20.561c11.725,0,21.409-9.176,22.26-20.561h11.895c2.72,0,4.929-2.209,4.929-4.928V93.627
	C161.428,91.08,159.558,89.04,157.179,88.701 M39.082,136.958c-6.457,0-11.724-5.268-11.724-11.725s5.267-11.726,11.724-11.726
	s11.725,5.269,11.725,11.726S45.709,136.958,39.082,136.958 M40.272,83.943c-0.68,0-1.19-0.68-1.02-1.36L45.03,66.95
	c1.189-3.398,4.418-5.607,7.986-5.607h6.967c0.51,0,1.019,0.34,1.019,0.85l1.87,20.73c0,0.511-0.34,1.021-1.02,1.021H40.272z
	 M77.315,83.092l-1.869-20.731c0-0.509,0.34-1.019,1.02-1.019h16.142c3.059,0,5.948,1.699,7.477,4.248l9.687,16.822
	c0.339,0.68-0.17,1.53-0.85,1.53H78.165C77.655,83.943,77.315,83.603,77.315,83.092 M122.345,136.958
	c-6.457,0-11.726-5.268-11.726-11.725s5.269-11.726,11.726-11.726s11.725,5.269,11.725,11.726S128.802,136.958,122.345,136.958"/>
<path fill="#ED2224" d="M47.069,35.174c7.647,0,13.934-4.758,16.483-11.554h5.607c0.17,0,0.51,0.169,0.68,0.169l3.228,2.889
	c0.34,0.34,0.68,0.34,1.02,0l4.758-4.248c0.34-0.34,0.679-0.34,1.019,0l4.758,4.248c0.34,0.34,0.68,0.34,1.021,0L90.4,22.43
	c0.339-0.34,0.679-0.34,1.019,0l4.758,4.248c0.341,0.34,0.681,0.34,1.02,0l3.229-2.889c0.171-0.169,0.341-0.169,0.681-0.169h3.908
	c0.34,0,0.68-0.17,0.85-0.34l4.078-5.098c0.34-0.34,0.34-0.85,0-1.359l-4.078-5.098c-0.17-0.17-0.51-0.34-0.85-0.34H63.552
	C61.003,4.758,54.546,0,47.069,0c-9.686,0-17.672,7.817-17.672,17.672C29.397,27.528,37.383,35.174,47.069,35.174 M40.272,13.594
	c2.209,0,3.908,1.869,3.908,3.908c0,2.209-1.869,3.908-3.908,3.908c-2.209,0-3.908-1.869-3.908-3.908
	C36.364,15.293,38.063,13.594,40.272,13.594"/>
</svg>
