<?xml version="1.0" encoding="utf-8"?>
<!-- Generator: Adobe Illustrator 16.0.0, SVG Export Plug-In . SVG Version: 6.00 Build 0)  -->
<!DOCTYPE svg PUBLIC "-//W3C//DTD SVG 1.1//EN" "http://www.w3.org/Graphics/SVG/1.1/DTD/svg11.dtd">
<svg version="1.1" id="Layer_1" xmlns="http://www.w3.org/2000/svg" xmlns:xlink="http://www.w3.org/1999/xlink" x="0px" y="0px"
	 width="58.333px" height="57.292px" viewBox="0 0 58.333 57.292" enable-background="new 0 0 58.333 57.292" xml:space="preserve">
<path fill="#010101" d="M25.275,27.218v3.814h5.147c-0.826,2.479-2.033,3.75-5.147,3.75s-5.593-2.542-5.593-5.657
	c0-3.114,2.415-5.657,5.593-5.657c1.653,0,2.733,0.572,3.686,1.399c0.827-0.827,0.763-0.891,2.733-2.797
	c-1.717-1.525-3.939-2.479-6.419-2.479c-5.275,0-9.534,4.259-9.534,9.534c0,5.276,4.259,9.534,9.534,9.534
	c7.881,0,9.788-6.864,9.153-11.441H25.275z"/>
<polygon fill="#010101" points="44.774,27.918 44.774,24.612 42.421,24.612 42.421,27.918 39.053,27.918 39.053,30.27 42.421,30.27 
	42.421,33.638 44.774,33.638 44.774,30.27 48.079,30.27 48.079,27.918 "/>
<circle fill="none" stroke="#010101" stroke-miterlimit="10" cx="30.014" cy="29.125" r="24"/>
</svg>
