<?xml version="1.0" encoding="utf-8"?>
<!-- Generator: Adobe Illustrator 16.0.0, SVG Export Plug-In . SVG Version: 6.00 Build 0)  -->
<!DOCTYPE svg PUBLIC "-//W3C//DTD SVG 1.1//EN" "http://www.w3.org/Graphics/SVG/1.1/DTD/svg11.dtd">
<svg version="1.1" id="Layer_1" xmlns="http://www.w3.org/2000/svg" xmlns:xlink="http://www.w3.org/1999/xlink" x="0px" y="0px"
	 width="429.167px" height="195.833px" viewBox="0 0 429.167 195.833" enable-background="new 0 0 429.167 195.833"
	 xml:space="preserve">
<path fill="#ED1F24" d="M76.877,48.208l37.102,140.161H84.534l-6.479-29.643H40.758l-6.48,29.643H4.834L41.936,48.208H76.877z
	 M73.147,135.562L59.602,72.549H59.21l-13.545,63.013H73.147z"/>
<path fill="#ED1F24" d="M153.638,144.887c0,3.533,0.227,6.771,0.688,9.719c0.456,2.944,1.307,5.494,2.551,7.653
	c1.241,2.16,2.944,3.862,5.104,5.104c2.158,1.246,4.874,1.864,8.148,1.864c3.4,0,6.15-0.618,8.245-1.864
	c2.092-1.242,3.76-2.944,5.006-5.104c1.241-2.159,2.092-4.709,2.551-7.653c0.455-2.947,0.688-6.186,0.688-9.719V47.129h28.268
	v97.758c0,8.9-1.246,16.264-3.729,22.085c-2.487,5.824-5.827,10.437-10.013,13.839c-4.188,3.404-8.965,5.692-14.331,6.869
	c-5.365,1.18-10.927,1.768-16.684,1.768c-5.76,0-11.322-0.523-16.688-1.57c-5.368-1.044-10.143-3.172-14.328-6.381
	c-4.191-3.203-7.527-7.754-10.014-13.643c-2.487-5.889-3.729-13.545-3.729-22.967V47.129h28.269V144.887z"/>
<polygon fill="#ED1F24" points="319.04,71.373 288.417,71.373 288.417,188.368 260.152,188.368 260.152,71.373 229.527,71.373 
	229.527,48.208 319.04,48.208 "/>
<path fill="#ED1F24" d="M331.038,86.78c0.982-8.96,3.141-16.652,6.48-23.064c3.334-6.41,8.145-11.416,14.428-15.017
	c6.279-3.597,14.722-5.397,25.32-5.397c10.601,0,19.043,1.8,25.324,5.397c6.282,3.601,11.092,8.607,14.428,15.017
	c3.338,6.412,5.496,14.104,6.479,23.064c0.979,8.966,1.472,18.749,1.472,29.348c0,10.733-0.492,20.549-1.472,29.446
	c-0.983,8.9-3.142,16.557-6.479,22.967c-3.336,6.412-8.146,11.322-14.428,14.723c-6.281,3.4-14.724,5.104-25.324,5.104
	c-10.599,0-19.041-1.703-25.32-5.104c-6.283-3.4-11.094-8.311-14.428-14.723c-3.34-6.41-5.498-14.066-6.48-22.967
	c-0.98-8.897-1.471-18.713-1.471-29.446C329.567,105.529,330.057,95.746,331.038,86.78 M358.52,140.177
	c0.459,6.608,1.373,11.972,2.75,16.095c1.373,4.121,3.336,7.135,5.889,9.031c2.55,1.898,5.919,2.844,10.107,2.844
	s7.56-0.945,10.109-2.844c2.553-1.896,4.516-4.91,5.889-9.031c1.377-4.123,2.289-9.486,2.75-16.095
	c0.457-6.606,0.687-14.625,0.687-24.049c0-9.422-0.229-17.403-0.687-23.947c-0.461-6.542-1.373-11.908-2.75-16.099
	c-1.373-4.186-3.336-7.228-5.889-9.128c-2.55-1.894-5.921-2.847-10.109-2.847s-7.558,0.953-10.107,2.847
	c-2.553,1.9-4.516,4.942-5.889,9.128c-1.377,4.191-2.291,9.557-2.75,16.099c-0.459,6.544-0.686,14.525-0.686,23.947
	C357.834,125.552,358.061,133.571,358.52,140.177"/>
<path fill="#ED1F24" d="M290.866,20.546c0,9.158-7.424,16.582-16.582,16.582s-16.582-7.424-16.582-16.582
	s7.424-16.582,16.582-16.582S290.866,11.388,290.866,20.546"/>
</svg>
