<?xml version="1.0" encoding="utf-8"?>
<!-- Generator: Adobe Illustrator 21.0.0, SVG Export Plug-In . SVG Version: 6.00 Build 0)  -->
<svg version="1.1" id="Layer_1" xmlns="http://www.w3.org/2000/svg" xmlns:xlink="http://www.w3.org/1999/xlink" x="0px" y="0px"
	 viewBox="0 0 133 123" style="enable-background:new 0 0 133 123;" xml:space="preserve">
<style type="text/css">
	.st0{fill:#FF0000;}
</style>
<g>
	<g>
		<path class="st0" d="M41.5,110.9c-3,0-6.1-0.6-9-1.7c-1.2-0.5-2.1-1.5-2.4-2.8c-0.3-1.3,0.1-2.6,1-3.5l10.6-10.6
			c0.1-0.1,0.1-0.2,0.1-0.2c0-0.1,0-0.2-0.1-0.2l-5.9-5.9c-0.1-0.1-0.4-0.1-0.5,0L24.7,96.5c-0.9,0.9-2.2,1.3-3.5,1
			c-1.3-0.3-2.3-1.1-2.8-2.4C14.9,86.1,17,75.7,24,68.7c6.3-6.3,15.6-8.7,24.1-6.3l19.7-19.7c-2.3-8.5,0-17.6,6.2-23.9
			c7-7.1,17.4-9.3,26.7-5.7c1.2,0.5,2.1,1.5,2.4,2.8c0.3,1.3-0.1,2.6-1,3.5L91.4,29.9c-0.1,0.1-0.1,0.2-0.1,0.2c0,0.1,0,0.2,0.1,0.2
			l5.9,5.9c0.1,0.1,0.4,0.1,0.5,0l10.6-10.6c0.9-0.9,2.2-1.3,3.5-1c1.3,0.3,2.3,1.1,2.8,2.4c3.6,9.2,1.4,19.6-5.5,26.5
			c-6.3,6.3-15.6,8.7-24.1,6.3L65.3,79.6c2.3,8.5,0,17.6-6.2,23.9C54.3,108.3,48,110.9,41.5,110.9z M35.6,78.2
			c2.1,0,4.2,0.8,5.7,2.3l5.9,5.9c1.5,1.5,2.3,3.5,2.3,5.7c0,2.1-0.8,4.2-2.3,5.7l-5.5,5.5c4.4,0,8.8-1.8,12-5.1
			c4.7-4.8,6.1-11.9,3.7-18.2c-0.5-1.4-0.2-3,0.9-4.1l23.1-23.1c1.1-1.1,2.7-1.4,4.1-0.9c6.3,2.5,13.5,1,18.3-3.8
			c3.2-3.2,4.9-7.5,5-11.9l-5.5,5.5c-1.5,1.5-3.5,2.3-5.7,2.3c-2.1,0-4.2-0.8-5.7-2.3L86,35.8c-1.5-1.5-2.3-3.5-2.3-5.7
			c0-2.1,0.8-4.2,2.3-5.7l5.5-5.5c-4.4,0-8.8,1.8-12,5.1c-4.7,4.8-6.1,11.9-3.7,18.2c0.5,1.4,0.2,3-0.9,4.1L51.8,69.4
			c-1.1,1.1-2.7,1.4-4.1,0.9c-6.3-2.5-13.5-1-18.3,3.8c-3.2,3.2-4.9,7.5-5,11.9l5.5-5.5C31.4,79,33.4,78.2,35.6,78.2z"/>
	</g>
</g>
</svg>
