<?xml version="1.0" encoding="utf-8"?>
<!-- Generator: Adobe Illustrator 16.0.0, SVG Export Plug-In . SVG Version: 6.00 Build 0)  -->
<!DOCTYPE svg PUBLIC "-//W3C//DTD SVG 1.1//EN" "http://www.w3.org/Graphics/SVG/1.1/DTD/svg11.dtd">
<svg version="1.1" id="Layer_1" xmlns="http://www.w3.org/2000/svg" xmlns:xlink="http://www.w3.org/1999/xlink" x="0px" y="0px"
	 width="133.908px" height="133.917px" viewBox="0 0 133.908 133.917" enable-background="new 0 0 133.908 133.917"
	 xml:space="preserve">
<path fill="#ED2224" d="M33.251,133.916c-4.08,0-8.198-0.75-12.149-2.299c-1.619-0.634-2.809-2.043-3.165-3.744
	c-0.356-1.701,0.17-3.468,1.401-4.697l14.232-14.232c0.09-0.09,0.136-0.202,0.136-0.329c0-0.126-0.046-0.237-0.136-0.327
	l-7.945-7.945c-0.181-0.182-0.476-0.182-0.656,0l-14.233,14.232c-1.228,1.23-2.996,1.756-4.697,1.401
	c-1.702-0.356-3.11-1.546-3.745-3.165C-2.528,100.5,0.393,86.508,9.735,77.164c8.523-8.521,20.914-11.698,32.367-8.531
	l26.543-26.543c-3.115-11.37-0.018-23.677,8.318-32.15c9.351-9.507,23.42-12.505,35.84-7.641c1.619,0.635,2.81,2.043,3.166,3.744
	c0.355,1.702-0.172,3.468-1.401,4.698l-14.231,14.233c-0.091,0.089-0.137,0.201-0.137,0.328c0,0.128,0.046,0.238,0.137,0.328
	l7.944,7.945c0.181,0.182,0.476,0.182,0.658,0l14.231-14.232c1.229-1.229,2.996-1.759,4.698-1.401
	c1.702,0.355,3.11,1.545,3.744,3.165c4.823,12.31,1.901,26.301-7.44,35.645c-8.521,8.521-20.912,11.7-32.367,8.532L65.261,91.826
	c3.115,11.37,0.018,23.676-8.318,32.15C50.566,130.459,41.996,133.916,33.251,133.916 M25.297,89.897
	c2.877,0,5.581,1.12,7.617,3.155l7.945,7.945c2.035,2.035,3.155,4.74,3.155,7.616c0,2.877-1.12,5.582-3.155,7.617l-7.377,7.377
	c5.954-0.062,11.774-2.44,16.118-6.858c6.304-6.408,8.258-16.011,4.978-24.463c-0.739-1.904-0.284-4.063,1.161-5.509L86.766,55.75
	c1.449-1.449,3.617-1.9,5.523-1.155c8.495,3.328,18.152,1.312,24.598-5.133c4.322-4.322,6.652-10.085,6.715-15.976l-7.373,7.373
	c-2.035,2.035-4.74,3.156-7.617,3.156c-2.876,0-5.581-1.121-7.614-3.156l-7.946-7.945c-2.035-2.035-3.154-4.74-3.154-7.615
	c0-2.877,1.119-5.582,3.154-7.617l7.377-7.376c-5.953,0.06-11.773,2.44-16.115,6.857c-6.303,6.409-8.258,16.011-4.979,24.464
	c0.739,1.904,0.284,4.065-1.16,5.508L47.143,78.164c-1.449,1.448-3.616,1.901-5.523,1.155c-8.497-3.328-18.153-1.313-24.598,5.13
	c-4.322,4.322-6.652,10.088-6.715,15.977l7.373-7.373C19.716,91.018,22.42,89.897,25.297,89.897"/>
</svg>
