<?xml version="1.0" encoding="utf-8"?>
<!-- Generator: Adobe Illustrator 16.0.0, SVG Export Plug-In . SVG Version: 6.00 Build 0)  -->
<!DOCTYPE svg PUBLIC "-//W3C//DTD SVG 1.1//EN" "http://www.w3.org/Graphics/SVG/1.1/DTD/svg11.dtd">
<svg version="1.1" id="Layer_1" xmlns="http://www.w3.org/2000/svg" xmlns:xlink="http://www.w3.org/1999/xlink" x="0px" y="0px"
	 width="118.974px" height="122.013px" viewBox="0 0 118.974 122.013" enable-background="new 0 0 118.974 122.013"
	 xml:space="preserve">
<path fill="#ED2224" d="M59.465,30.401c-16.903,0.007-30.599,13.715-30.592,30.617c0.007,16.903,13.715,30.6,30.616,30.593
	c16.898-0.007,30.594-13.707,30.594-30.605C90.062,44.107,76.365,30.416,59.465,30.401 M59.465,81.443
	c-11.287-0.006-20.432-9.162-20.425-20.449s9.163-20.432,20.449-20.425c11.283,0.007,20.426,9.155,20.426,20.438
	C79.901,72.292,70.751,81.437,59.465,81.443"/>
<path fill="#ED2224" d="M115.96,71.708l-9.584-7.5c0.077-0.99,0.128-2.071,0.128-3.203c0-1.131,0-2.211-0.128-3.202l9.609-7.512
	c3.071-2.445,3.889-6.771,1.919-10.168l-11.172-19.255c-1.913-3.34-5.951-4.82-9.57-3.508h-0.153l-11.324,4.55
	c-1.763-1.193-3.605-2.264-5.516-3.203L78.441,6.799C77.929,2.898,74.597-0.015,70.663,0H48.293
	c-3.907-0.026-7.231,2.842-7.778,6.71l-1.729,12.062c-1.9,0.944-3.734,2.014-5.491,3.203l-11.438-4.576
	c-3.626-1.437-7.757,0.023-9.673,3.419L1.077,40.137c-1.981,3.394-1.163,7.729,1.919,10.168l9.583,7.499
	c-0.139,1.143-0.139,2.186-0.139,3.202c0,1.017,0,2.059,0.127,3.203L2.97,71.72C-0.041,74.126-0.874,78.355,1,81.722v0.115
	l11.121,19.242c1.896,3.383,5.963,4.896,9.609,3.572h0.151l11.324-4.55c1.763,1.192,3.605,2.263,5.516,3.202l1.717,11.973
	c0.55,3.902,3.914,6.788,7.854,6.736h22.369c3.907,0.025,7.231-2.842,7.778-6.711l1.729-12.062c1.904-0.944,3.742-2.014,5.503-3.203
	l11.439,4.576c3.639,1.42,7.768-0.054,9.685-3.457l11.134-19.435C119.81,78.352,118.978,74.116,115.96,71.708 M98.866,94.395
	l-12.023-4.83c-1.648-0.662-3.522-0.416-4.944,0.647c-2.557,1.965-5.354,3.592-8.324,4.844c-1.666,0.683-2.846,2.195-3.103,3.978
	l-1.816,12.812H50.301l-1.843-12.812c-0.257-1.782-1.436-3.295-3.101-3.978c-2.968-1.225-5.755-2.846-8.287-4.817
	c-1.427-1.097-3.326-1.358-4.995-0.687l-12.011,4.843L10.851,78.47l10.168-7.982c1.406-1.104,2.131-2.865,1.905-4.639
	c-0.206-1.606-0.312-3.223-0.317-4.843c0.018-1.624,0.137-3.245,0.355-4.855c0.225-1.774-0.499-3.535-1.906-4.639L10.888,43.53
	l9.177-15.912l12.023,4.83c1.652,0.655,3.527,0.399,4.944-0.674c2.556-1.964,5.354-3.591,8.325-4.842
	c1.665-0.684,2.844-2.197,3.101-3.979l1.83-12.786h18.366l1.83,12.812c0.257,1.781,1.436,3.294,3.101,3.978
	c2.972,1.224,5.763,2.844,8.3,4.817c1.427,1.096,3.326,1.357,4.995,0.686l11.985-4.842l9.202,15.925L97.9,51.525
	c-1.407,1.103-2.131,2.865-1.906,4.639c0.212,1.606,0.323,3.223,0.33,4.842c-0.016,1.625-0.134,3.246-0.356,4.856
	c-0.224,1.774,0.5,3.535,1.907,4.64l10.167,7.98L98.866,94.395z"/>
</svg>
