<?xml version="1.0" encoding="utf-8"?>
<!-- Generator: Adobe Illustrator 21.0.0, SVG Export Plug-In . SVG Version: 6.00 Build 0)  -->
<svg version="1.1" id="Layer_1" xmlns="http://www.w3.org/2000/svg" xmlns:xlink="http://www.w3.org/1999/xlink" x="0px" y="0px"
	 viewBox="0 0 133 123" style="enable-background:new 0 0 133 123;" xml:space="preserve">
<style type="text/css">
	.st0{fill:#FF0000;}
</style>
<g>
	<path class="st0" d="M67,39.3c-12.6,0-22.8,10.2-22.8,22.8S54.4,84.9,67,84.9c12.6,0,22.8-10.2,22.8-22.8
		C89.7,49.5,79.5,39.4,67,39.3z M67,77.3c-8.4,0-15.2-6.8-15.2-15.2S58.6,46.9,67,46.9c8.4,0,15.2,6.8,15.2,15.2
		C82.2,70.5,75.4,77.3,67,77.3z"/>
	<path class="st0" d="M109,70.1l-7.1-5.6c0.1-0.7,0.1-1.5,0.1-2.4c0-0.8,0-1.6-0.1-2.4l7.1-5.6c2.3-1.8,2.9-5,1.4-7.6l-8.3-14.3
		c-1.4-2.5-4.4-3.6-7.1-2.6h-0.1L86.5,33c-1.3-0.9-2.7-1.7-4.1-2.4l-1.3-8.9c-0.4-2.9-2.9-5.1-5.8-5.1H58.7c-2.9,0-5.4,2.1-5.8,5
		l-1.3,9c-1.4,0.7-2.8,1.5-4.1,2.4L39,29.7c-2.7-1.1-5.8,0-7.2,2.5l-8.3,14.4c-1.5,2.5-0.9,5.7,1.4,7.6l7.1,5.6
		C32,60.6,32,61.4,32,62.1s0,1.5,0.1,2.4L25,70.1c-2.2,1.8-2.9,4.9-1.5,7.4v0.1l8.3,14.3c1.4,2.5,4.4,3.6,7.1,2.7H39l8.4-3.4
		c1.3,0.9,2.7,1.7,4.1,2.4l1.3,8.9c0.4,2.9,2.9,5,5.8,5h16.6c2.9,0,5.4-2.1,5.8-5l1.3-9c1.4-0.7,2.8-1.5,4.1-2.4l8.5,3.4
		c2.7,1.1,5.8,0,7.2-2.6l8.3-14.5C111.9,75,111.2,71.9,109,70.1z M96.3,86.9l-8.9-3.6c-1.2-0.5-2.6-0.3-3.7,0.5
		c-1.9,1.5-4,2.7-6.2,3.6c-1.2,0.5-2.1,1.6-2.3,3l-1.4,9.5H60.2l-1.4-9.5c-0.2-1.3-1.1-2.5-2.3-3c-2.2-0.9-4.3-2.1-6.2-3.6
		c-1.1-0.8-2.5-1-3.7-0.5l-8.9,3.6l-6.9-11.8l7.6-5.9c1-0.8,1.6-2.1,1.4-3.5c-0.2-1.2-0.2-2.4-0.2-3.6c0-1.2,0.1-2.4,0.3-3.6
		c0.2-1.3-0.4-2.6-1.4-3.5l-7.6-5.9l6.8-11.8l8.9,3.6c1.2,0.5,2.6,0.3,3.7-0.5c1.9-1.5,4-2.7,6.2-3.6c1.2-0.5,2.1-1.6,2.3-3l1.4-9.5
		h13.7l1.4,9.5c0.2,1.3,1.1,2.5,2.3,3c2.2,0.9,4.3,2.1,6.2,3.6c1.1,0.8,2.5,1,3.7,0.5l8.9-3.6l6.8,11.8l-7.6,5.9
		c-1,0.8-1.6,2.1-1.4,3.5c0.2,1.2,0.2,2.4,0.2,3.6c0,1.2-0.1,2.4-0.3,3.6c-0.2,1.3,0.4,2.6,1.4,3.5l7.6,5.9L96.3,86.9z"/>
</g>
</svg>
