<?xml version="1.0" encoding="utf-8"?>
<!-- Generator: Adobe Illustrator 16.0.0, SVG Export Plug-In . SVG Version: 6.00 Build 0)  -->
<!DOCTYPE svg PUBLIC "-//W3C//DTD SVG 1.1//EN" "http://www.w3.org/Graphics/SVG/1.1/DTD/svg11.dtd">
<svg version="1.1" id="Layer_1" xmlns="http://www.w3.org/2000/svg" xmlns:xlink="http://www.w3.org/1999/xlink" x="0px" y="0px"
	 width="57.292px" height="59.375px" viewBox="0 0 57.292 59.375" enable-background="new 0 0 57.292 59.375" xml:space="preserve">
<circle fill="none" stroke="#010101" stroke-miterlimit="10" cx="28.917" cy="31.208" r="24"/>
<path fill="#010101" d="M40.297,30.375v0.192c0,0.024-0.121,2.729-1.448,4.88c-1.087,1.738-3.961,6.352-10.289,6.352
	c-4.275,0-7.439-1.063-9.709-3.237c-1.884-1.811-3.236-4.612-3.429-7.173c-0.097-1.135,0-2.632,0.072-3.55
	c0.531,0.556,1.352,1.328,2.15,1.787c1.521,0.821,3.332,1.329,4.83,1.329h0.241c1.256-0.049,3.575-0.388,4.879-2.174
	c0.604-0.821,0.99-1.956,1.377-3.043c0.338-0.99,0.676-1.933,1.111-2.561c0.941-1.304,2.076-2.512,4.153-2.512
	c0.169,0,0.338,0,0.531,0.023c2.366,0.218,3.284,1.136,4.178,2.029l0.073,0.072c0.699,0.701,1.256,2.826,1.4,3.599l0.024,0.169
	l3.31,1.643L40.297,30.375z"/>
</svg>
